# xmcd CD database file
#
# Track frame offsets:
#	150
#	22264
#	33826
#	45055
#	56073
#	75834
#	90900
#	127328
#	147100
#	165408
#	174463
#
# Disc length: 2487 seconds
#
# Revision: 0
# Processed by: cddbd v1.5.2PL0 Copyright (c) Steve Scherf et al.
# Submitted via: CDex 1.51
#
DISCID=7c09b50b
DTITLE=MarcAndre Leger - Sail On
DYEAR=2010
DGENRE=Blues
TTITLE0=Ramblin' Highwayside V2
TTITLE1=The Rock Island Line
TTITLE2=Last Fair Deal Gone Down
TTITLE3=Rag Mama Rag
TTITLE4=Spoonful
TTITLE5=Sweet Blood Call
TTITLE6=Sail On
TTITLE7=Good Morning Little School Girl
TTITLE8=When I Was A Cowboy
TTITLE9=29 Ways
TTITLE10=Down By The Riverside
EXTD=YEAR: 2010
EXTT0=
EXTT1=
EXTT2=
EXTT3=
EXTT4=
EXTT5=
EXTT6=
EXTT7=
EXTT8=
EXTT9=
EXTT10=
PLAYORDER=
